<svg height="512pt" viewBox="0 0 512 512" width="512pt" xmlns="http://www.w3.org/2000/svg"><linearGradient id="a" gradientUnits="userSpaceOnUse" x1="42.966" x2="469.034" y1="469.03" y2="42.962"><stop offset="0" stop-color="#ffd600"/><stop offset=".5" stop-color="#ff0100"/><stop offset="1" stop-color="#d800b9"/></linearGradient><linearGradient id="b" gradientUnits="userSpaceOnUse" x1="163.043" x2="348.954" y1="348.954" y2="163.043"><stop offset="0" stop-color="#ff6400"/><stop offset=".5" stop-color="#ff0100"/><stop offset="1" stop-color="#fd0056"/></linearGradient><linearGradient id="c" gradientUnits="userSpaceOnUse" x1="370.929" x2="414.373" y1="141.068" y2="97.624"><stop offset="0" stop-color="#f30072"/><stop offset="1" stop-color="#e50097"/></linearGradient><path d="M510.46 150.453c-1.245-27.25-5.573-45.86-11.901-62.14a125.466 125.466 0 00-29.528-45.344 125.503 125.503 0 00-45.344-29.535c-16.285-6.325-34.89-10.649-62.14-11.887C334.247.297 325.523 0 256 0s-78.246.297-105.547 1.54c-27.25 1.245-45.855 5.573-62.14 11.901A125.466 125.466 0 0042.968 42.97a125.488 125.488 0 00-29.535 45.34c-6.325 16.285-10.649 34.894-11.887 62.14C.297 177.754 0 186.473 0 255.996c0 69.527.297 78.25 1.547 105.55 1.242 27.247 5.57 45.856 11.898 62.142a125.451 125.451 0 0029.528 45.34 125.433 125.433 0 0045.343 29.527c16.282 6.332 34.891 10.656 62.141 11.902 27.305 1.246 36.023 1.54 105.547 1.54 69.523 0 78.246-.294 105.547-1.54 27.25-1.246 45.855-5.57 62.14-11.902a130.879 130.879 0 0074.868-74.868c6.332-16.285 10.656-34.894 11.902-62.14C511.703 334.242 512 325.523 512 256c0-69.527-.297-78.246-1.54-105.547zM464.38 359.45c-1.137 24.961-5.309 38.516-8.813 47.535a84.775 84.775 0 01-48.586 48.586c-9.02 3.504-22.574 7.676-47.535 8.813-26.988 1.234-35.086 1.492-103.445 1.492-68.363 0-76.457-.258-103.45-1.492-24.956-1.137-38.51-5.309-47.534-8.813a79.336 79.336 0 01-29.434-19.152 79.305 79.305 0 01-19.152-29.434c-3.504-9.02-7.676-22.574-8.813-47.535-1.23-26.992-1.492-35.09-1.492-103.445 0-68.36.262-76.453 1.492-103.45 1.14-24.96 5.309-38.515 8.813-47.534a79.367 79.367 0 0119.152-29.438 79.261 79.261 0 0129.438-19.148c9.02-3.508 22.574-7.676 47.535-8.817 26.992-1.23 35.09-1.492 103.445-1.492h-.004c68.356 0 76.453.262 103.45 1.496 24.96 1.137 38.511 5.309 47.534 8.813a79.375 79.375 0 0129.434 19.148 79.261 79.261 0 0119.149 29.438c3.507 9.02 7.68 22.574 8.816 47.535 1.23 26.992 1.492 35.09 1.492 103.445 0 68.36-.258 76.453-1.492 103.45zm0 0" fill="url(#a)"/><path d="M255.996 124.54c-72.601 0-131.457 58.858-131.457 131.46s58.856 131.457 131.457 131.457c72.606 0 131.461-58.855 131.461-131.457s-58.855-131.46-131.46-131.46zm0 216.792c-47.125-.004-85.332-38.207-85.328-85.336 0-47.125 38.203-85.332 85.332-85.332 47.129.004 85.332 38.207 85.332 85.332 0 47.129-38.207 85.336-85.336 85.336zm0 0" fill="url(#b)"/><path d="M423.371 119.348c0 16.965-13.754 30.718-30.719 30.718-16.968 0-30.722-13.754-30.722-30.718 0-16.97 13.754-30.723 30.722-30.723 16.965 0 30.72 13.754 30.72 30.723zm0 0" fill="url(#c)"/></svg>