<svg xmlns="http://www.w3.org/2000/svg" viewBox="0 0 512 512"><path d="M506.086 194.207l2.207-2.825 3.708 2.825v300.138c-.029 9.739-7.917 17.626-17.655 17.655H17.655C7.917 511.971.029 504.083 0 494.345V194.207l3.708-2.825 2.207 2.825h500.171z" fill="#ff5364"/><path d="M508.292 191.382l-2.207 2.825-241.257 185.379h-17.655L5.914 194.207l-2.207-2.825 84.568-65.766L204.623 35.31l40.695-31.603a17.242 17.242 0 0121.363 0l40.695 31.603 116.348 90.306 84.568 65.766z" fill="#802d40"/><path d="M423.724 52.965V257.5L264.828 379.586h-17.655L88.276 257.501V52.965c.029-9.739 7.917-17.626 17.655-17.655h300.138c9.739.029 17.626 7.917 17.655 17.655z" fill="#f0c419"/><g fill="#df4d60"><path d="M508.557 504.761A17.472 17.472 0 01494.345 512H17.655a17.468 17.468 0 01-14.212-7.239l202.24-157.043 39.636-30.808a17.242 17.242 0 0121.363 0l39.636 30.808 202.239 157.043zM256 61.793c-58.504 0-105.931 47.427-105.931 105.931S197.496 273.655 256 273.655A8.828 8.828 0 00256 256c-48.753 0-88.276-39.522-88.276-88.276S207.247 79.448 256 79.448s88.276 39.522 88.276 88.276v35.31c0 9.751-7.905 17.655-17.655 17.655s-17.655-7.904-17.655-17.655v-35.31a8.828 8.828 0 00-17.656 0c0 19.501-15.809 35.31-35.31 35.31s-35.31-15.809-35.31-35.31 15.809-35.31 35.31-35.31a8.828 8.828 0 000-17.656c-23.705-.053-44.559 15.652-51.056 38.449-6.497 22.798 2.946 47.136 23.118 59.587 20.172 12.451 46.161 9.982 63.628-6.044 1.922 18.668 18.148 32.549 36.889 31.557 18.741-.992 33.411-16.507 33.353-35.274v-35.31C361.868 109.246 314.478 61.856 256 61.793z"/></g></svg>