<svg height="512" width="512" xmlns="http://www.w3.org/2000/svg"><path d="M444.394 3.996H159.322c-37.183 0-67.606 30.423-67.606 67.606v23.004h257.871c37.183 0 67.606 30.423 67.606 67.606v168.547h27.201c37.183 0 67.606-30.423 67.606-67.606V71.602c0-37.184-30.423-67.606-67.606-67.606z" fill="#6c7ed6"/><path d="M396.461 91.515H111.389a67.033 67.033 0 00-19.673 2.946v.145h257.871c37.183 0 67.606 30.423 67.606 67.606v168.547h27.2a67.033 67.033 0 0019.673-2.946V159.121c.001-37.183-30.422-67.606-67.605-67.606z" fill="#4f67d2"/><path d="M352.678 91.515H67.606C30.423 91.515 0 121.938 0 159.121v191.55c0 37.183 30.423 67.606 67.606 67.606h171.096c7.335 0 12.811 6.826 11.133 13.966-4.537 19.317-11.48 39.745-21.744 60.686-4.609 9.405 5.876 18.966 14.782 13.454 25.751-15.937 62.389-42.61 93.244-80.317 4.056-4.957 10.156-7.79 16.561-7.79 37.183 0 67.606-30.423 67.606-67.606V159.12c0-37.182-30.423-67.605-67.606-67.605z" fill="#60b8fe"/><path d="M293.618 432.243c1.677-7.141-3.798-13.966-11.133-13.966h-43.783c7.335 0 12.81 6.825 11.133 13.966-4.537 19.317-11.48 39.745-21.744 60.686-4.609 9.405 5.876 18.966 14.782 13.454a413.564 413.564 0 0033.509-23.108c7.832-17.563 13.399-34.696 17.236-51.032zM43.783 350.671v-191.55c0-37.183 30.423-67.606 67.606-67.606H67.606C30.423 91.515 0 121.938 0 159.121v191.55c0 37.183 30.423 67.606 67.606 67.606h43.783c-37.184 0-67.606-30.422-67.606-67.606z" fill="#23a8fe"/><g fill="#dfebfa"><circle cx="93.714" cy="260.397" r="22.434"/><circle cx="166.174" cy="260.397" r="22.434"/><circle cx="238.633" cy="260.397" r="22.434"/><circle cx="311.093" cy="260.397" r="22.434"/></g><path d="M93.714 260.397c0-8.302 4.514-15.546 11.217-19.425a22.323 22.323 0 00-11.217-3.009c-12.39 0-22.434 10.044-22.434 22.434s10.044 22.434 22.434 22.434a22.32 22.32 0 0011.217-3.009c-6.704-3.879-11.217-11.123-11.217-19.425zM166.174 260.397c0-8.302 4.514-15.546 11.217-19.425a22.323 22.323 0 00-11.217-3.009c-12.39 0-22.434 10.044-22.434 22.434s10.044 22.434 22.434 22.434c4.088 0 7.916-1.099 11.217-3.009-6.704-3.879-11.217-11.123-11.217-19.425zM238.633 260.397c0-8.302 4.514-15.546 11.217-19.425a22.326 22.326 0 00-11.217-3.009c-12.39 0-22.434 10.044-22.434 22.434s10.044 22.434 22.434 22.434a22.32 22.32 0 0011.217-3.009c-6.703-3.879-11.217-11.123-11.217-19.425zM311.093 260.397c0-8.302 4.513-15.546 11.217-19.425a22.326 22.326 0 00-11.217-3.009c-12.39 0-22.434 10.044-22.434 22.434s10.044 22.434 22.434 22.434a22.32 22.32 0 0011.217-3.009c-6.704-3.879-11.217-11.123-11.217-19.425z" fill="#b1dbfc"/></svg>