<svg xmlns="http://www.w3.org/2000/svg" viewBox="0 0 512.006 512.006"><path d="M143.756 68.271l32.6 48.905c6.479 9.738 4.355 22.825-4.873 30.014l-40.139 31.223c-8.71 6.707-11.213 18.772-5.888 28.39 11.785 21.186 22.952 46.168 78.23 101.517s80.331 66.445 101.517 78.23c9.618 5.325 21.683 2.822 28.39-5.888l31.223-40.139c7.188-9.227 20.275-11.352 30.014-4.873l50.458 33.633 56.761 37.844c9.926 6.617 12.906 19.863 6.771 30.093l-26.898 44.835a54.774 54.774 0 01-32.194 24.876c-44.703 12.262-143.307 14.742-301.347-143.298S-7.187 106.98 5.074 62.277A54.782 54.782 0 0129.95 30.083L74.786 3.185C85.016-2.95 98.262.03 104.879 9.956l38.877 58.315z" fill="#46b29d"/><g fill="#ff5364"><path d="M291.309 61.792a8.828 8.828 0 000 17.656c82.842.092 149.977 67.226 150.069 150.069a8.828 8.828 0 0017.656 0c-.103-92.59-75.136-167.623-167.725-167.725z"/><path d="M291.309 114.757a8.828 8.828 0 000 17.656c53.603.063 97.04 43.501 97.103 97.103a8.828 8.828 0 0017.656 0c-.074-63.35-51.41-114.686-114.759-114.759z"/><path d="M291.309 167.723a8.828 8.828 0 000 17.656c24.365.029 44.109 19.773 44.138 44.138a8.828 8.828 0 0017.656 0c-.04-34.113-27.683-61.756-61.794-61.794z"/></g><g fill="#65ddb9"><path d="M247.171 423.723a8.773 8.773 0 01-5.297-1.766C171.059 368.85 93.315 265.709 90.04 261.295a8.828 8.828 0 0114.124-10.593c.786 1.05 79.528 105.543 148.303 157.131a8.827 8.827 0 01-5.296 15.89z"/><circle cx="273.654" cy="432.55" r="8.828"/></g></svg>